<?xml version="1.0" encoding="UTF-8"?>
<svg version="1.1" xmlns="http://www.w3.org/2000/svg" width="252" height="125">
<path d="M0 0 C0.85049423 0.00222061 1.70098846 0.00444122 2.57725525 0.00672913 C4.01863609 0.00684242 4.01863609 0.00684242 5.48913574 0.00695801 C7.05630592 0.01469994 7.05630592 0.01469994 8.65513611 0.02259827 C9.71913132 0.02401321 10.78312653 0.02542816 11.87936401 0.02688599 C15.29293069 0.03250388 18.70643286 0.04505941 22.11997986 0.05775452 C24.42792162 0.06276721 26.73586441 0.06733052 29.04380798 0.07142639 C34.71505412 0.08247912 40.38626238 0.09923465 46.05747986 0.12025452 C45.38368637 7.24834034 43.78815046 14.13445149 42.17381096 21.09733009 C41.67019247 23.26968781 41.17148311 25.4431233 40.6739502 27.61688232 C39.61869249 32.2231898 38.557067 36.82801779 37.49497986 41.43275452 C36.26029428 46.78875552 35.02823294 52.1453425 33.80127144 57.50311852 C33.30985819 59.64366081 32.81444467 61.78325122 32.31881714 63.92282104 C32.01855013 65.23118471 31.71845623 66.53958813 31.41856384 67.84803772 C31.15510666 68.98972916 30.89164948 70.13142059 30.62020874 71.30770874 C29.95938496 74.13248944 29.95938496 74.13248944 30.05747986 77.12025452 C40.91090655 61.55482579 40.91090655 61.55482579 51.68247986 45.93275452 C56.3543518 39.11544583 61.09154306 32.34494756 65.8401947 25.58094788 C70.16883834 19.40906642 74.45104149 13.20687813 78.68247986 6.96791077 C80.35872813 4.51044802 81.94873411 2.22900026 84.05747986 0.12025452 C86.00586891 -0.12584114 86.00586891 -0.12584114 88.43605042 -0.12025452 C89.8158886 -0.12437851 89.8158886 -0.12437851 91.22360229 -0.12858582 C92.23564224 -0.12139526 93.24768219 -0.11420471 94.29039001 -0.10679626 C95.35382126 -0.10708832 96.4172525 -0.10738037 97.51290894 -0.10768127 C101.0408687 -0.10628383 104.56861933 -0.09070305 108.09654236 -0.07505798 C110.53748967 -0.07132933 112.97843848 -0.06848166 115.41938782 -0.06648254 C121.85398976 -0.05883447 128.28850187 -0.03917589 134.72306824 -0.01707458 C141.28504725 0.00335858 147.84704073 0.01251375 154.40904236 0.02259827 C167.29189325 0.04406888 180.17468179 0.07783626 193.05747986 0.12025452 C192.29915215 4.28060311 191.03488494 7.62067148 189.20591736 11.44837952 C188.91540497 12.06134888 188.62489258 12.67431824 188.32557678 13.30586243 C187.69612597 14.6330325 187.06427343 15.95906558 186.43028259 17.28407288 C184.70791168 20.885164 183.00442736 24.49517644 181.29966736 28.10462952 C180.94640381 28.85164124 180.59314026 29.59865295 180.22917175 30.36830139 C176.58890615 38.08154068 173.06780379 45.84724468 169.55747986 53.62025452 C163.78020071 66.40189634 157.87850344 79.1210814 151.89146423 91.80580139 C151.58940063 92.44669708 151.28733704 93.08759277 150.97612 93.74790955 C150.16426453 95.46975592 149.35068672 97.1907899 148.53697205 98.91175842 C146.98091596 102.28629457 145.52129186 105.70469319 144.05747986 109.12025452 C158.24747986 109.45025452 172.43747986 109.78025452 187.05747986 110.12025452 C184.05747986 119.12025452 184.05747986 119.12025452 181.05747986 125.12025452 C150.36747986 125.12025452 119.67747986 125.12025452 88.05747986 125.12025452 C90.97207216 118.12523298 93.86376975 111.20262828 97.06919861 104.35072327 C97.43513123 103.56325714 97.80106384 102.77579102 98.17808533 101.96446228 C98.96004912 100.28236479 99.74305894 98.60075323 100.52705383 96.91960144 C101.7729113 94.24785543 103.01581609 91.57475365 104.25791931 88.90126038 C105.98987927 85.17347391 107.7226335 81.4460584 109.45591736 77.71888733 C113.18210157 69.7031371 116.89492152 61.68122396 120.6018219 53.65653992 C121.70595085 51.267213 122.81172606 48.87865309 123.91758728 46.49012756 C128.7315199 36.07747815 133.42502644 25.6148446 138.05747986 15.12025452 C133.10747986 15.12025452 128.15747986 15.12025452 123.05747986 15.12025452 C126.35747986 15.78025452 129.65747986 16.44025452 133.05747986 17.12025452 C127.71055157 29.23559405 122.24895579 41.29185183 116.68247986 53.30775452 C115.50922033 55.84363664 114.33632432 58.37968672 113.16343689 60.91574097 C112.35663787 62.66011149 111.54967098 64.40440437 110.74253845 66.14862061 C107.8523231 72.39581503 104.97238939 78.64768465 102.09654236 84.90150452 C100.88904845 87.52531193 99.6813915 90.14904424 98.47367859 92.77275085 C97.70679508 94.43975019 96.94054147 96.10703948 96.17497253 97.77464294 C95.10115794 100.11333948 94.02486691 102.4508826 92.94810486 104.78822327 C92.64248627 105.45555481 92.33686768 106.12288635 92.02198792 106.81044006 C89.16939181 112.99180888 86.10773455 119.01974513 83.05747986 125.12025452 C67.21747986 125.12025452 51.37747986 125.12025452 35.05747986 125.12025452 C44.25320796 104.4298663 44.25320796 104.4298663 47.31919861 97.81556702 C47.67267868 97.05018112 48.02615875 96.28479523 48.39035034 95.49621582 C49.50728173 93.07863524 50.62606722 90.66191867 51.74497986 88.24525452 C52.5287614 86.5499023 53.31245155 84.85450784 54.09605408 83.15907288 C60.73243975 68.80472733 67.38766679 54.45909687 74.05747986 40.12025452 C64.5979953 51.70191461 56.25012004 64.21273614 47.86582947 76.57948303 C42.56771492 84.39126689 37.19028372 92.14542255 31.79039001 99.88710022 C27.24313405 106.40836315 22.72356105 112.94766124 18.24205017 119.51429749 C15.16217733 124.01555704 15.16217733 124.01555704 14.05747986 125.12025452 C11.46388664 125.20876981 8.89708294 125.23551397 6.30357361 125.21791077 C5.52812698 125.21649582 4.75268036 125.21508087 3.95373535 125.21362305 C1.46744491 125.20800797 -1.01875674 125.19545298 -3.50502014 125.18275452 C-5.18665947 125.17774146 -6.8683002 125.17317821 -8.54994202 125.16908264 C-12.6808358 125.15803365 -16.8116629 125.14075896 -20.94252014 125.12025452 C-20.25733981 116.46825695 -18.27665113 108.14783169 -16.34486389 99.71009827 C-15.98713978 98.13122109 -15.62985211 96.55224497 -15.27297974 94.97317505 C-14.33861605 90.84424509 -13.3983802 86.71667457 -12.4568634 82.58937073 C-11.49471629 78.36675535 -10.53820024 74.14286508 -9.58119202 69.91908264 C-7.70710505 61.65155738 -5.82680487 53.3854615 -3.94252014 45.12025452 C-6.01001383 47.18774821 -6.99163766 50.29981343 -8.23158264 52.93275452 C-8.56703094 53.64134613 -8.90247925 54.34993774 -9.24809265 55.08000183 C-10.35712891 57.42555307 -11.46251039 59.77280393 -12.56752014 62.12025452 C-12.94501404 62.92025879 -13.32250793 63.72026306 -13.71144104 64.54450989 C-19.94152473 77.75111617 -26.04165634 91.01370235 -32.03089905 104.33119202 C-35.18829386 111.34124791 -38.44609849 118.27200008 -41.94252014 125.12025452 C-47.55252014 125.12025452 -53.16252014 125.12025452 -58.94252014 125.12025452 C-58.06311187 120.72321314 -56.99562906 117.77827239 -55.09095764 113.79212952 C-54.80044525 113.17916016 -54.50993286 112.5661908 -54.21061707 111.93464661 C-53.58116625 110.60747654 -52.94931371 109.28144345 -52.31532288 107.95643616 C-50.59295197 104.35534503 -48.88946764 100.74533259 -47.18470764 97.13587952 C-46.83144409 96.3888678 -46.47818054 95.64185608 -46.11421204 94.87220764 C-42.47394431 87.15896386 -38.95304156 79.39317847 -35.44252014 71.62025452 C-29.81573683 59.17453988 -24.06689854 46.79080984 -18.24671936 34.4344635 C-14.02229421 25.46017989 -9.87495797 16.45422169 -5.82215881 7.40077209 C-5.26685486 6.16556824 -5.26685486 6.16556824 -4.70033264 4.90541077 C-4.38209534 4.19263977 -4.06385803 3.47986877 -3.73597717 2.74549866 C-2.47026231 0.15292516 -2.47026231 0.15292516 0 0 Z M-2.94252014 39.12025452 C-1.94252014 41.12025452 -1.94252014 41.12025452 -1.94252014 41.12025452 Z M28.05747986 78.12025452 C29.05747986 80.12025452 29.05747986 80.12025452 29.05747986 80.12025452 Z " fill="#BE423F" transform="translate(58.94252014160156,-0.1202545166015625)"/>
</svg>
